<svg xmlns="http://www.w3.org/2000/svg" viewBox="0 0 25 25" id="apple-music"><defs><mask id="a"><path fill="#FFF" d="M0,0h25v25h-25Z"></path></mask></defs><g mask="url(#a)"><path fill="#58368A" fill-rule="evenodd" d="M12.5373,2.23848c-5.65685,0 -10.2427,4.5858 -10.2427,10.2427c8.88178e-16,5.6568 4.5858,10.2426 10.2427,10.2426c5.6569,0 10.2427,-4.5858 10.2427,-10.2426c0,-5.65692 -4.5858,-10.2427 -10.2427,-10.2427Zm-12.5188,10.2427c-5.0307e-16,-6.914 5.60488,-12.5189 12.5188,-12.5189c6.914,-8.88178e-16 12.5189,5.60487 12.5189,12.5189c0,6.9139 -5.6049,12.5188 -12.5189,12.5188c-6.91393,0 -12.5188,-5.6049 -12.5188,-12.5188Z"></path><path fill="#DE002B" fill-rule="evenodd" d="M19.3658,6.79078c0,-0.37688 -0.1866,-0.72932 -0.4983,-0.94119c-0.3116,-0.21188 -0.708,-0.25573 -1.0585,-0.11709l-7.96648,3.1516c-0.4342,0.17177 -0.71942,0.59133 -0.71942,1.05827v3.83633c-0.36174,-0.1049 -0.74597,-0.1595 -1.13801,-0.1595c-0.85098,0 -1.6652,0.2573 -2.29233,0.7276c-0.62748,0.4707 -1.1219,1.2077 -1.1219,2.1176c0,0.91 0.49442,1.647 1.1219,2.1176c0.62713,0.4703 1.44135,0.7276 2.29233,0.7276c0.85098,0 1.6652,-0.2573 2.29231,-0.7276c0.6275,-0.4706 1.1219,-1.2076 1.1219,-2.1176c0,-0.0061 0,-0.0123 0,-0.0184v-5.73l5.6903,-2.2511v4.1758c-0.3617,-0.1049 -0.746,-0.1595 -1.138,-0.1595c-0.851,0 -1.6652,0.2572 -2.2923,0.7276c-0.6275,0.4706 -1.1219,1.2076 -1.1219,2.1175c0,0.91 0.4944,1.647 1.1219,2.1176c0.6271,0.4704 1.4413,0.7276 2.2923,0.7276c0.851,0 1.6652,-0.2572 2.2923,-0.7276c0.5308,-0.3981 0.9663,-0.9868 1.088,-1.7095c0.0221,-0.0886 0.0339,-0.1813 0.0339,-0.2767v-0.1196c0,-0.0039 0,-0.0078 0,-0.0118c0,-0.0039 0,-0.0078 0,-0.0117v-8.52382Zm-2.2762,8.53312v0.0049c-0.0007,0.0359 -0.0196,0.1504 -0.2114,0.2942c-0.1967,0.1475 -0.5205,0.2724 -0.9266,0.2724c-0.4061,0 -0.73,-0.1249 -0.9267,-0.2724c-0.1963,-0.1472 -0.2114,-0.2638 -0.2114,-0.2967c0,-0.0328 0.0151,-0.1494 0.2114,-0.2966c0.1967,-0.1475 0.5206,-0.2724 0.9267,-0.2724c0.4061,0 0.7299,0.1249 0.9266,0.2724c0.1918,0.1438 0.2107,0.2583 0.2114,0.2942Zm-7.9665,1.1366v0.0039c0,0.0013 0,0.0026 0,0.0039c-0.00126,0.0375 -0.02214,0.1508 -0.21137,0.2928c-0.19668,0.1475 -0.52053,0.2724 -0.92664,0.2724c-0.40611,0 -0.72996,-0.1249 -0.92664,-0.2724c-0.19632,-0.1473 -0.21144,-0.2638 -0.21144,-0.2967c0,-0.0329 0.01512,-0.1494 0.21144,-0.2966c0.19668,-0.1475 0.52053,-0.2724 0.92664,-0.2724c0.40611,0 0.72996,0.1249 0.92664,0.2724c0.18915,0.1418 0.21009,0.2552 0.21137,0.2927Z"></path></g></svg>