<svg version="1.1" id="Layer_1" xmlns="http://www.w3.org/2000/svg" xmlns:xlink="http://www.w3.org/1999/xlink" x="0px" y="0px"
	 width="100%" viewBox="0 0 225 225" enable-background="new 0 0 225 225" xml:space="preserve">
<path fill="#A8AAAE" opacity="1.000000" stroke="none" 
	d="
M101.000000,1.000000 
	C109.020897,1.000000 117.041801,1.000000 125.775574,1.310643 
	C176.646225,9.410110 212.430389,41.870029 223.402054,89.536804 
	C224.280869,93.354904 225.134613,97.178795 226.000000,101.000000 
	C226.000000,109.354233 226.000000,117.708466 225.690186,126.766037 
	C225.233002,128.114563 225.057266,128.754745 224.942368,129.405685 
	C216.374146,177.951904 183.943451,212.803207 137.465836,223.402740 
	C133.645172,224.274063 129.822006,225.134506 126.000000,226.000000 
	C117.645767,226.000000 109.291534,226.000000 100.233963,225.690186 
	C98.885323,225.232986 98.245041,225.057251 97.594017,224.942337 
	C48.985825,216.362854 14.333727,184.108429 3.584193,137.452164 
	C2.778517,133.955276 1.863947,130.483459 1.000000,127.000000 
	C1.000000,118.312439 1.000000,109.624870 1.309822,100.233971 
	C1.766995,98.885429 1.942763,98.245232 2.057649,97.594299 
	C10.625754,49.048195 43.056526,14.196787 89.534149,3.597260 
	C93.354828,2.725930 97.177994,1.865497 101.000000,1.000000 
M130.235153,16.116863 
	C118.467751,16.235138 106.372253,14.616178 94.988533,16.766058 
	C39.448269,27.255150 5.050964,80.481995 17.312834,135.727600 
	C20.375147,149.524780 26.304653,162.037628 35.533466,173.970596 
	C37.740402,166.198914 41.245266,160.311829 48.288399,157.450333 
	C60.256439,152.587936 72.257095,147.805801 84.327209,142.956512 
	C95.637924,162.277481 132.922897,164.447662 143.716919,142.902679 
	C152.238647,146.269012 160.619873,149.892700 169.218063,152.895096 
	C179.370468,156.440247 189.241379,160.013733 191.577271,172.312820 
	C192.491867,171.957275 192.881424,171.928986 193.044113,171.722214 
	C193.969818,170.545685 194.907135,169.369247 195.721634,168.115585 
	C211.332870,144.086716 216.501953,117.830452 209.291824,90.230125 
	C198.709869,49.722401 171.937866,25.288280 130.235153,16.116863 
z"/>
<path fill="#FEFEFF" opacity="1.000000" stroke="none" 
	d="
M226.000000,100.531342 
	C225.134613,97.178795 224.280869,93.354904 223.402054,89.536804 
	C212.430389,41.870029 176.646225,9.410110 126.244217,1.310643 
	C159.260269,1.000000 192.520523,1.000000 226.000000,1.000000 
	C226.000000,34.020573 226.000000,67.041626 226.000000,100.531342 
z"/>
<path fill="#FEFEFF" opacity="1.000000" stroke="none" 
	d="
M100.531342,1.000000 
	C97.177994,1.865497 93.354828,2.725930 89.534149,3.597260 
	C43.056526,14.196787 10.625754,49.048195 2.057649,97.594299 
	C1.942763,98.245232 1.766995,98.885429 1.309822,99.765320 
	C1.000000,67.072693 1.000000,34.145393 1.000000,1.000000 
	C34.020573,1.000000 67.041626,1.000000 100.531342,1.000000 
z"/>
<path fill="#FEFEFF" opacity="1.000000" stroke="none" 
	d="
M126.468658,226.000000 
	C129.822006,225.134506 133.645172,224.274063 137.465836,223.402740 
	C183.943451,212.803207 216.374146,177.951904 224.942368,129.405685 
	C225.057266,128.754745 225.233002,128.114563 225.690186,127.234680 
	C226.000000,159.927292 226.000000,192.854599 226.000000,226.000000 
	C192.979431,226.000000 159.958374,226.000000 126.468658,226.000000 
z"/>
<path fill="#FEFEFF" opacity="1.000000" stroke="none" 
	d="
M1.000000,127.468658 
	C1.863947,130.483459 2.778517,133.955276 3.584193,137.452164 
	C14.333727,184.108429 48.985825,216.362854 97.594017,224.942337 
	C98.245041,225.057251 98.885323,225.232986 99.765305,225.690186 
	C67.073067,226.000000 34.146137,226.000000 1.000000,226.000000 
	C1.000000,193.312759 1.000000,160.625046 1.000000,127.468658 
z"/>
<path fill="#FFFFFF" opacity="1.000000" stroke="none" 
	d="
M130.662674,16.183235 
	C171.937866,25.288280 198.709869,49.722401 209.291824,90.230125 
	C216.501953,117.830452 211.332870,144.086716 195.721634,168.115585 
	C194.907135,169.369247 193.969818,170.545685 193.044113,171.722214 
	C192.881424,171.928986 192.491867,171.957275 191.577271,172.312820 
	C189.241379,160.013733 179.370468,156.440247 169.218063,152.895096 
	C160.619873,149.892700 152.238647,146.269012 143.716919,142.902679 
	C132.922897,164.447662 95.637924,162.277481 84.327209,142.956512 
	C72.257095,147.805801 60.256439,152.587936 48.288399,157.450333 
	C41.245266,160.311829 37.740402,166.198914 35.533466,173.970596 
	C26.304653,162.037628 20.375147,149.524780 17.312834,135.727600 
	C5.050964,80.481995 39.448269,27.255150 94.988533,16.766058 
	C106.372253,14.616178 118.467751,16.235138 130.662674,16.183235 
M140.249054,58.040871 
	C134.956100,56.892788 130.541153,54.498970 126.649872,50.492222 
	C122.010902,45.715614 115.787788,44.055229 109.182785,44.835278 
	C90.705498,47.017445 79.800415,60.019592 69.226662,71.792519 
	C72.504662,75.822266 76.986229,78.851845 77.357170,82.320969 
	C78.057838,88.873680 80.930870,96.145309 75.598396,102.417534 
	C74.991135,103.131805 74.976151,104.755135 75.285622,105.775208 
	C76.889191,111.060959 77.199196,117.170135 83.687187,119.566162 
	C84.391235,119.826172 84.754227,121.086098 85.214783,121.915871 
	C87.282921,125.641930 89.393707,129.346878 91.345459,133.133469 
	C91.962395,134.330383 92.085648,135.773132 92.518791,137.075439 
	C93.190727,139.095764 93.374046,141.662323 94.739899,143.005249 
	C103.003281,151.129974 119.215126,153.087997 129.188721,147.185974 
	C132.969879,144.948425 137.261063,142.554276 135.277924,136.684494 
	C135.082733,136.106766 135.721069,135.182297 136.098206,134.486923 
	C138.503174,130.052505 140.915863,125.621597 143.401886,121.232521 
	C143.771057,120.580757 144.470383,120.036812 145.135681,119.644104 
	C152.586014,115.246353 154.019958,106.857956 148.394272,100.392380 
	C161.616562,83.757927 154.493591,64.258163 140.249054,58.040871 
z"/>
<path fill="#A7A9AE" opacity="1.000000" stroke="none" 
	d="
M140.595444,58.195976 
	C154.493591,64.258163 161.616562,83.757927 148.394272,100.392380 
	C154.019958,106.857956 152.586014,115.246353 145.135681,119.644104 
	C144.470383,120.036812 143.771057,120.580757 143.401886,121.232521 
	C140.915863,125.621597 138.503174,130.052505 136.098206,134.486923 
	C135.721069,135.182297 135.082733,136.106766 135.277924,136.684494 
	C137.261063,142.554276 132.969879,144.948425 129.188721,147.185974 
	C119.215126,153.087997 103.003281,151.129974 94.739899,143.005249 
	C93.374046,141.662323 93.190727,139.095764 92.518791,137.075439 
	C92.085648,135.773132 91.962395,134.330383 91.345459,133.133469 
	C89.393707,129.346878 87.282921,125.641930 85.214783,121.915871 
	C84.754227,121.086098 84.391235,119.826172 83.687187,119.566162 
	C77.199196,117.170135 76.889191,111.060959 75.285622,105.775208 
	C74.976151,104.755135 74.991135,103.131805 75.598396,102.417534 
	C80.930870,96.145309 78.057838,88.873680 77.357170,82.320969 
	C76.986229,78.851845 72.504662,75.822266 69.226662,71.792519 
	C79.800415,60.019592 90.705498,47.017445 109.182785,44.835278 
	C115.787788,44.055229 122.010902,45.715614 126.649872,50.492222 
	C130.541153,54.498970 134.956100,56.892788 140.595444,58.195976 
z"/>
</svg>